<mxfile host="app.diagrams.net" agent="Mozilla/5.0 (Windows NT 10.0; Win64; x64) AppleWebKit/537.36 (KHTML, like Gecko) Chrome/136.0.0.0 Safari/537.36 Edg/136.0.0.0" version="26.2.14">
  <diagram name="Trang-1" id="Qo0BZYM5q6vWBfiaebC5">
    <mxGraphModel dx="1749" dy="477" grid="1" gridSize="10" guides="1" tooltips="1" connect="1" arrows="1" fold="1" page="1" pageScale="1" pageWidth="827" pageHeight="1169" math="0" shadow="0">
      <root>
        <mxCell id="0" />
        <mxCell id="1" parent="0" />
        <mxCell id="uXojthe0PCbLUYG90kvk-5" value="" style="edgeStyle=orthogonalEdgeStyle;rounded=0;orthogonalLoop=1;jettySize=auto;html=1;" edge="1" parent="1" source="uXojthe0PCbLUYG90kvk-1" target="uXojthe0PCbLUYG90kvk-4">
          <mxGeometry relative="1" as="geometry" />
        </mxCell>
        <mxCell id="uXojthe0PCbLUYG90kvk-1" value="start" style="ellipse;whiteSpace=wrap;html=1;" vertex="1" parent="1">
          <mxGeometry x="320" y="10" width="120" height="80" as="geometry" />
        </mxCell>
        <mxCell id="uXojthe0PCbLUYG90kvk-7" value="" style="edgeStyle=orthogonalEdgeStyle;rounded=0;orthogonalLoop=1;jettySize=auto;html=1;" edge="1" parent="1" source="uXojthe0PCbLUYG90kvk-4" target="uXojthe0PCbLUYG90kvk-6">
          <mxGeometry relative="1" as="geometry" />
        </mxCell>
        <mxCell id="uXojthe0PCbLUYG90kvk-8" value="No" style="edgeLabel;html=1;align=center;verticalAlign=middle;resizable=0;points=[];" vertex="1" connectable="0" parent="uXojthe0PCbLUYG90kvk-7">
          <mxGeometry x="-0.3181" relative="1" as="geometry">
            <mxPoint as="offset" />
          </mxGeometry>
        </mxCell>
        <mxCell id="uXojthe0PCbLUYG90kvk-10" value="Yes" style="edgeStyle=orthogonalEdgeStyle;rounded=0;orthogonalLoop=1;jettySize=auto;html=1;" edge="1" parent="1" source="uXojthe0PCbLUYG90kvk-4" target="uXojthe0PCbLUYG90kvk-9">
          <mxGeometry relative="1" as="geometry" />
        </mxCell>
        <mxCell id="uXojthe0PCbLUYG90kvk-4" value="chat already?" style="rhombus;whiteSpace=wrap;html=1;" vertex="1" parent="1">
          <mxGeometry x="330" y="170" width="100" height="80" as="geometry" />
        </mxCell>
        <mxCell id="uXojthe0PCbLUYG90kvk-12" value="" style="edgeStyle=orthogonalEdgeStyle;rounded=0;orthogonalLoop=1;jettySize=auto;html=1;" edge="1" parent="1" source="uXojthe0PCbLUYG90kvk-6" target="uXojthe0PCbLUYG90kvk-11">
          <mxGeometry relative="1" as="geometry" />
        </mxCell>
        <mxCell id="uXojthe0PCbLUYG90kvk-6" value="search" style="whiteSpace=wrap;html=1;" vertex="1" parent="1">
          <mxGeometry x="140" y="180" width="120" height="60" as="geometry" />
        </mxCell>
        <mxCell id="uXojthe0PCbLUYG90kvk-18" value="" style="edgeStyle=orthogonalEdgeStyle;rounded=0;orthogonalLoop=1;jettySize=auto;html=1;" edge="1" parent="1" source="uXojthe0PCbLUYG90kvk-9" target="uXojthe0PCbLUYG90kvk-17">
          <mxGeometry relative="1" as="geometry" />
        </mxCell>
        <mxCell id="uXojthe0PCbLUYG90kvk-9" value="ChatItem" style="whiteSpace=wrap;html=1;" vertex="1" parent="1">
          <mxGeometry x="500" y="180" width="120" height="60" as="geometry" />
        </mxCell>
        <mxCell id="uXojthe0PCbLUYG90kvk-14" value="" style="edgeStyle=orthogonalEdgeStyle;rounded=0;orthogonalLoop=1;jettySize=auto;html=1;" edge="1" parent="1" source="uXojthe0PCbLUYG90kvk-11" target="uXojthe0PCbLUYG90kvk-13">
          <mxGeometry relative="1" as="geometry" />
        </mxCell>
        <mxCell id="uXojthe0PCbLUYG90kvk-11" value="ContactResult" style="whiteSpace=wrap;html=1;" vertex="1" parent="1">
          <mxGeometry x="-60" y="180" width="120" height="60" as="geometry" />
        </mxCell>
        <mxCell id="uXojthe0PCbLUYG90kvk-16" value="" style="edgeStyle=orthogonalEdgeStyle;rounded=0;orthogonalLoop=1;jettySize=auto;html=1;" edge="1" parent="1" source="uXojthe0PCbLUYG90kvk-13" target="uXojthe0PCbLUYG90kvk-15">
          <mxGeometry relative="1" as="geometry">
            <Array as="points">
              <mxPoint y="460" />
            </Array>
          </mxGeometry>
        </mxCell>
        <mxCell id="uXojthe0PCbLUYG90kvk-21" value="" style="edgeStyle=orthogonalEdgeStyle;rounded=0;orthogonalLoop=1;jettySize=auto;html=1;entryX=1;entryY=0.5;entryDx=0;entryDy=0;" edge="1" parent="1" source="uXojthe0PCbLUYG90kvk-13" target="uXojthe0PCbLUYG90kvk-22">
          <mxGeometry relative="1" as="geometry">
            <mxPoint x="-140" y="350" as="targetPoint" />
          </mxGeometry>
        </mxCell>
        <mxCell id="uXojthe0PCbLUYG90kvk-13" value="click" style="whiteSpace=wrap;html=1;" vertex="1" parent="1">
          <mxGeometry x="-60" y="320" width="120" height="60" as="geometry" />
        </mxCell>
        <mxCell id="uXojthe0PCbLUYG90kvk-15" value="ChatView" style="whiteSpace=wrap;html=1;" vertex="1" parent="1">
          <mxGeometry x="320" y="430" width="120" height="60" as="geometry" />
        </mxCell>
        <mxCell id="uXojthe0PCbLUYG90kvk-19" style="edgeStyle=orthogonalEdgeStyle;rounded=0;orthogonalLoop=1;jettySize=auto;html=1;exitX=0.5;exitY=1;exitDx=0;exitDy=0;entryX=1;entryY=0.5;entryDx=0;entryDy=0;" edge="1" parent="1" source="uXojthe0PCbLUYG90kvk-17" target="uXojthe0PCbLUYG90kvk-15">
          <mxGeometry relative="1" as="geometry" />
        </mxCell>
        <mxCell id="uXojthe0PCbLUYG90kvk-17" value="click" style="whiteSpace=wrap;html=1;" vertex="1" parent="1">
          <mxGeometry x="500" y="320" width="120" height="60" as="geometry" />
        </mxCell>
        <mxCell id="uXojthe0PCbLUYG90kvk-22" value="&lt;h1 style=&quot;margin-top: 0px;&quot;&gt;&lt;font style=&quot;font-size: 18px;&quot;&gt;backend flow&lt;/font&gt;&lt;/h1&gt;&lt;p&gt;&lt;br&gt;&lt;/p&gt;" style="text;html=1;whiteSpace=wrap;overflow=hidden;rounded=0;" vertex="1" parent="1">
          <mxGeometry x="-400" y="340" width="250" height="120" as="geometry" />
        </mxCell>
      </root>
    </mxGraphModel>
  </diagram>
</mxfile>
